<svg id="Layer_1" data-name="Layer 1" xmlns="http://www.w3.org/2000/svg" viewBox="0 0 1358.5 260">
  <defs>
    <style>
      .cls-1 {
        fill: #fff;
        stroke: #000;
        stroke-miterlimit: 10;
      }
    </style>
  </defs>
  <polyline class="cls-1" points="0 233.5 52 233.5 52 0.5 199 0.5 199 109.5 156 109.5 153 38.5 89 38.5 89 196.5 152 196.5 152 161.5 110 161.5 110 129.5 199 129.5 199 233.5 366 233.5 366 138.5 266 0.5 323 0.5 400 117.5 455 0.5 506 0.5 438 140.5 438 233.5 558 233.5 558 0.5 619 0.5 619 187.5 697 187.5 697 0.5 760 0.5 760 233.5 840 233.5 840 193.5 954 193.5 954 137.5 833 137.5 833 0.5 1049 0.5 1049 74.5 1000 74.5 1000 27.5 900 27.5 900 98.5 1049 98.5 1049 233.5 1125 233.5 1125 0.5 1288 0.5 1288 233.5 1358 233.5 1358 259.5 1241 259.5 1241 137.5 1169 137.5 1169 259.5 30 259.5"/>
</svg>
