<svg style="object-fit:cover" id="my-svg" version="1" baseProfile="full" width="100%" height="100%" viewBox="0 0 1366 625" xmlns="http://www.w3.org/2000/svg"><rect width="1366" height="625" fill="#ffffff"/><defs><linearGradient id="linear-gradient" x1="0" x2="1" y1="0" y2="1"><stop offset="0%" stop-color="#ffffff70"/><stop offset="100%" stop-color="#00000070"/></linearGradient></defs><path transform="scale(1, 1)" d="M 0,625 V 0,375 V 331 H 20 V 487 H 43 V 315 H 58 V 496 H 79 V 429 H 107 V 426 H 123 V 421 H 145 V 470 H 168 V 449 H 185 V 432 H 206 V 267 H 226 V 308 H 245 V 509 H 267 V 241 H 289 V 360 H 313 V 369 H 333 V 465 H 354 V 300 H 370 V 309 H 391 V 469 H 413 V 489 H 433 V 234 H 455 V 439 H 477 V 436 H 497 V 350 H 514 V 335 H 538 V 365 H 561 V 290 H 577 V 473 H 599 V 253 H 622 V 426 H 640 V 289 H 660 V 506 H 683 V 314 H 705 V 322 H 725 V 479 H 746 V 315 H 765 V 383 H 787 V 415 H 806 V 415 H 828 V 296 H 845 V 364 H 871 V 376 H 886 V 364 H 913 V 342 H 933 V 246 H 955 V 493 H 968 V 280 H 993 V 415 H 1017 V 410 H 1034 V 453 H 1053 V 442 H 1079 V 269 H 1100 V 450 H 1120 V 337 H 1140 V 279 H 1158 V 476 H 1177 V 417 H 1199 V 312 H 1219 V 452 H 1240 V 306 H 1263 V 502 H 1283 V 515 H 1307 V 291 H 1324 V 487 H 1348 V 375 H 1366 C 1366,375 1366,625 1366,625 Z" stroke="none" stroke-width="0" fill="url(#linear-gradient)" class="transition-all duration-300 ease-in-out delay-150" style="transform-origin: center center;"/><defs><linearGradient id="linear-gradient" x1="0" x2="1" y1="0" y2="1"><stop offset="0%" stop-color="#ffffff80"/><stop offset="100%" stop-color="#00000080"/></linearGradient></defs><path transform="scale(1, 1)" d="M 0,625 V 0,562 V 517 H 21 V 577 H 44 V 679 H 59 V 444 H 80 V 508 H 102 V 564 H 124 V 483 H 143 V 513 H 166 V 526 H 186 V 480 H 209 V 487 H 228 V 684 H 250 V 496 H 270 V 690 H 292 V 614 H 310 V 675 H 334 V 624 H 350 V 671 H 370 V 450 H 393 V 662 H 414 V 433 H 438 V 663 H 457 V 685 H 472 V 600 H 495 V 573 H 517 V 693 H 540 V 491 H 555 V 596 H 582 V 652 H 597 V 541 H 618 V 543 H 638 V 518 H 662 V 457 H 684 V 600 H 703 V 685 H 721 V 488 H 745 V 651 H 769 V 609 H 786 V 483 H 805 V 660 H 828 V 477 H 845 V 470 H 867 V 645 H 891 V 636 H 912 V 461 H 929 V 629 H 952 V 428 H 971 V 425 H 992 V 509 H 1014 V 547 H 1036 V 587 H 1055 V 560 H 1077 V 565 H 1097 V 467 H 1118 V 497 H 1134 V 435 H 1162 V 534 H 1177 V 432 H 1202 V 430 H 1223 V 494 H 1240 V 580 H 1259 V 675 H 1281 V 535 H 1301 V 515 H 1324 V 497 H 1343 V 562 H 1366 C 1366,562 1366,625 1366,625 Z" stroke="none" stroke-width="0" fill="url(#linear-gradient)" class="transition-all duration-300 ease-in-out delay-150" style="transform-origin: center center;"/><defs><linearGradient id="linear-gradient" x1="0" x2="1" y1="0" y2="1"><stop offset="0%" stop-color="#ffffff90"/><stop offset="100%" stop-color="#00000090"/></linearGradient></defs><path transform="scale(1, 1)" d="M 0,625 V 0,843 V 794 H 24 V 867 H 44 V 824 H 61 V 728 H 79 V 816 H 104 V 912 H 121 V 908 H 143 V 728 H 165 V 952 H 189 V 715 H 209 V 855 H 230 V 888 H 247 V 850 H 269 V 917 H 290 V 883 H 309 V 981 H 328 V 823 H 350 V 840 H 369 V 705 H 391 V 907 H 415 V 752 H 431 V 786 H 454 V 980 H 477 V 903 H 499 V 974 H 515 V 812 H 541 V 977 H 561 V 975 H 580 V 922 H 596 V 737 H 617 V 890 H 641 V 859 H 664 V 887 H 685 V 881 H 707 V 977 H 721 V 911 H 744 V 891 H 766 V 739 H 787 V 834 H 804 V 747 H 824 V 911 H 846 V 888 H 868 V 940 H 892 V 711 H 914 V 759 H 933 V 954 H 950 V 805 H 970 V 794 H 991 V 744 H 1017 V 733 H 1035 V 832 H 1058 V 972 H 1075 V 768 H 1099 V 903 H 1116 V 926 H 1140 V 718 H 1162 V 903 H 1176 V 884 H 1198 V 944 H 1217 V 891 H 1239 V 917 H 1261 V 771 H 1286 V 781 H 1304 V 916 H 1328 V 705 H 1348 V 843 H 1366 C 1366,843 1366,625 1366,625 Z" stroke="none" stroke-width="0" fill="url(#linear-gradient)" class="transition-all duration-300 ease-in-out delay-150" style="transform-origin: center center;"/><defs><linearGradient id="linear-gradient" x1="0" x2="1" y1="0" y2="1"><stop offset="0%" stop-color="#ffffffff"/><stop offset="100%" stop-color="#000000ff"/></linearGradient></defs><path transform="scale(1, 1)" d="M 0,625 V 0,1265 V 1130 H 21 V 1337 H 37 V 1300 H 63 V 1136 H 79 V 1299 H 104 V 1340 H 124 V 1296 H 143 V 1128 H 167 V 1128 H 188 V 1342 H 203 V 1398 H 223 V 1264 H 246 V 1210 H 268 V 1333 H 290 V 1363 H 310 V 1323 H 333 V 1159 H 349 V 1400 H 375 V 1381 H 389 V 1263 H 413 V 1327 H 436 V 1311 H 454 V 1238 H 479 V 1167 H 494 V 1316 H 514 V 1208 H 539 V 1239 H 559 V 1209 H 579 V 1307 H 597 V 1336 H 620 V 1321 H 639 V 1140 H 659 V 1167 H 679 V 1176 H 702 V 1314 H 726 V 1307 H 743 V 1149 H 765 V 1136 H 784 V 1278 H 808 V 1385 H 826 V 1299 H 847 V 1312 H 869 V 1354 H 890 V 1133 H 909 V 1355 H 934 V 1332 H 948 V 1329 H 973 V 1197 H 996 V 1195 H 1010 V 1247 H 1037 V 1351 H 1054 V 1303 H 1078 V 1239 H 1096 V 1196 H 1118 V 1185 H 1134 V 1266 H 1159 V 1263 H 1182 V 1298 H 1197 V 1393 H 1218 V 1135 H 1242 V 1146 H 1265 V 1297 H 1282 V 1263 H 1306 V 1260 H 1324 V 1291 H 1347 V 1265 H 1366 C 1366,1265 1366,625 1366,625 Z" stroke="none" stroke-width="0" fill="url(#linear-gradient)" class="transition-all duration-300 ease-in-out delay-150" style="transform-origin: center center;"/></svg>